<svg xmlns="http://www.w3.org/2000/svg" width="692" height="338" viewBox="0 0 692 338">
  <defs>
    <style>
      .cls-1 {
        fill: #535353;
        stroke: #000;
        stroke-linejoin: bevel;
        stroke-width: 8.92px;
      }

      .cls-1, .cls-2 {
        fill-rule: evenodd;
      }
    </style>
  </defs>
  <path class="cls-1" d="M384.8,75.454c-24.584-17.962-45.638-43.2-48.174-53.44C333.663,32.464,314.76,57.009,288.2,74.952c-27.389,18.5-68.527,35.8-68.214,82.083,0.545,81.345,80.447,99.939,113.119,35.823-0.9,21.364-6.294,60.76-25.153,65.529-1.676.423-3.424,2.808-1.726,3.916,13.158,8.566,53.484,5.282,59.587,3.912,7.429-1.64,3.4-5.471,2.918-5.745-14.423-8.089-27.007-35.755-28.141-66.094,32.167,59.645,111.879,43.909,112.42-36.837C453.325,111.256,411.68,95.094,384.8,75.454Z"/>
  <path id="R" class="cls-2" d="M276.217,283.375l-17.578-37.988q55.175-21.387,55.175-50,0-33.788-53.027-33.789h-98.34l-15.234,24.609h99.609q24.611,0,24.61,17.383,0,15.138-19.434,25.195-3.222,1.758-15.918,6.445-13.088,4.886-16.7,5.567l19.238,42.578q4,8.888,6.641,11.523,4,4.1,11.719,4.1h37.6a23.9,23.9,0,0,0,13.574-3.906,14.559,14.559,0,0,0,6.836-11.719H276.217ZM197.8,198.805L162.447,299H197.6l35.644-100.195H197.8Z"/>
  <path id="M" class="cls-2" d="M537.141,283.375l23.339-61.621a26.073,26.073,0,0,0,1.954-9.277,12.451,12.451,0,0,0-5.86-11.133,13.157,13.157,0,0,0-7.226-2.539q-8.595-.1-13.184,2.539-2.637,1.662-10.644,9.668l-37.6,37.793,18.945-49.219a26.408,26.408,0,0,0,2.149-9.668q0-6.933-5.371-10.449a12.578,12.578,0,0,0-6.739-2.246q-11.329,0-18.457,4.492-4.3,2.734-12.3,11.914l-41.993,47.559,21-60.547a28.982,28.982,0,0,0,1.856-9.18q0-9.863-13.477-9.863H368.293l-14.746,24.609h54.2L368.293,299h19.824q11.719,0,17.774-7.422l60.254-72.754-24.024,62.012a22.179,22.179,0,0,0-1.758,8.2q0,9.865,11.133,11.133a25.1,25.1,0,0,0,3.711.293q9.276,0,17.09-8.692l48.437-53.125-16.211,42.188a25.853,25.853,0,0,0-2.05,8.691q0,9.474,16.406,9.473h35.059q23.046,0,27.148-15.625H537.141Z"/>
</svg>
