<svg xmlns="http://www.w3.org/2000/svg" width="512" height="512" viewBox="0 0 512 512">
  <defs>
    <style>
      .cls-1, .cls-2 {
        fill: #fff;
        stroke: #000;
        stroke-linejoin: bevel;
        fill-rule: evenodd;
      }

      .cls-1 {
        stroke-width: 10.2px;
      }

      .cls-2 {
        stroke-width: 5.07px;
      }
    </style>
  </defs>
  <path class="cls-1" d="M180.771,92.951c-8.015-30.617,60.469-35.6,64.111-12.816,17.489-39.16,73.59-22.784,68.491,5.7,38.612-15.666,61.2,9.255,46.628,34.889,43.716,4.983,21.856,49.842,9.47,54.113,13.844,41.294-29.143,46.992-42.984,38.45-7.289,40.581-56.83,23.493-62.659,2.134-26.229,44.146-57.559,9.967-57.559-2.134-39.342,14.951-57.556-7.833-52.46-24.921-30.6-.712-35.7-39.163-11.654-50.554C118.112,107.905,157.454,77.288,180.771,92.951Z"/>
  <path class="cls-2" d="M224,309l-3.4-5.59H205.57l6.553-10.774-3.4-5.592h-6.8l-9.955,16.366H169.7l11.132-18.3h19.909l3.4-5.591-3.4-5.59H187.635l7.518-12.356-3.4-5.59h-6.8l-7.515,12.356-6.556-10.775h-6.8l-3.4,5.59,9.955,16.365-11.132,18.3-11.132-18.3,9.955-16.365-3.4-5.59h-6.8l-6.553,10.775-7.518-12.356h-6.8l-3.4,5.59,7.517,12.356H118.256l-3.4,5.59,3.4,5.591h19.91l11.132,18.3-22.264,0-9.954-16.364h-6.8l-3.4,5.592,6.554,10.772H98.4L95,309l3.4,5.59h15.033l-6.554,10.774,3.4,5.592,6.8,0,9.954-16.364H149.3l-11.132,18.3h-19.91l-3.4,5.59,3.4,5.59h13.109l-7.517,12.356,3.4,5.591h6.8l7.518-12.357,6.553,10.776h6.8l3.4-5.592-9.956-16.364,11.132-18.3,11.132,18.3-9.953,16.364,3.4,5.592h6.8l6.555-10.775,7.516,12.356h6.8l3.4-5.59-7.518-12.357h13.109l3.4-5.59-3.4-5.59H180.835L169.7,314.59h22.264l9.955,16.364h6.8l3.4-5.59L205.57,314.59H220.6Zm0,0-3.4-5.59H205.57l6.553-10.774-3.4-5.592h-6.8l-9.955,16.366H169.7l11.132-18.3h19.909l3.4-5.591-3.4-5.59H187.635l7.518-12.356-3.4-5.59h-6.8l-7.515,12.356-6.556-10.775h-6.8l-3.4,5.59,9.955,16.365-11.132,18.3-11.132-18.3,9.955-16.365-3.4-5.59h-6.8l-6.553,10.775-7.518-12.356h-6.8l-3.4,5.59,7.517,12.356H118.256l-3.4,5.59,3.4,5.591h19.91l11.132,18.3-22.264,0-9.954-16.364h-6.8l-3.4,5.592,6.554,10.772H98.4L95,309l3.4,5.59h15.033l-6.554,10.774,3.4,5.592,6.8,0,9.954-16.364H149.3l-11.132,18.3h-19.91l-3.4,5.59,3.4,5.59h13.109l-7.517,12.356,3.4,5.591h6.8l7.518-12.357,6.553,10.776h6.8l3.4-5.592-9.956-16.364,11.132-18.3,11.132,18.3-9.953,16.364,3.4,5.592h6.8l6.555-10.775,7.516,12.356h6.8l3.4-5.59-7.518-12.357h13.109l3.4-5.59-3.4-5.59H180.835L169.7,314.59h22.264l9.955,16.364h6.8l3.4-5.59L205.57,314.59H220.6Zm0,0-3.4-5.59H205.57l6.553-10.774-3.4-5.592h-6.8l-9.955,16.366H169.7l11.132-18.3h19.909l3.4-5.591-3.4-5.59H187.635l7.518-12.356-3.4-5.59h-6.8l-7.515,12.356-6.556-10.775h-6.8l-3.4,5.59,9.955,16.365-11.132,18.3-11.132-18.3,9.955-16.365-3.4-5.59h-6.8l-6.553,10.775-7.518-12.356h-6.8l-3.4,5.59,7.517,12.356H118.256l-3.4,5.59,3.4,5.591h19.91l11.132,18.3-22.264,0-9.954-16.364h-6.8l-3.4,5.592,6.554,10.772H98.4L95,309l3.4,5.59h15.033l-6.554,10.774,3.4,5.592,6.8,0,9.954-16.364H149.3l-11.132,18.3h-19.91l-3.4,5.59,3.4,5.59h13.109l-7.517,12.356,3.4,5.591h6.8l7.518-12.357,6.553,10.776h6.8l3.4-5.592-9.956-16.364,11.132-18.3,11.132,18.3-9.953,16.364,3.4,5.592h6.8l6.555-10.775,7.516,12.356h6.8l3.4-5.59-7.518-12.357h13.109l3.4-5.59-3.4-5.59H180.835L169.7,314.59h22.264l9.955,16.364h6.8l3.4-5.59L205.57,314.59H220.6Z"/>
  <path class="cls-2" d="M353,440l-3.4-5.59H334.57l6.553-10.774-3.4-5.592h-6.8l-9.955,16.366H298.7l11.132-18.3h19.909l3.4-5.591-3.4-5.59H316.635l7.518-12.356-3.4-5.59h-6.8l-7.515,12.356-6.556-10.775h-6.8l-3.4,5.59,9.955,16.365-11.132,18.3-11.132-18.3,9.955-16.365-3.4-5.59h-6.8l-6.553,10.775-7.518-12.356h-6.8l-3.4,5.59,7.517,12.356H247.256l-3.4,5.59,3.4,5.591h19.91l11.132,18.3-22.264,0-9.954-16.364h-6.8l-3.4,5.592,6.554,10.772H227.4L224,440l3.4,5.59h15.033l-6.554,10.774,3.4,5.592,6.8,0,9.954-16.364H278.3l-11.132,18.3h-19.91l-3.4,5.59,3.4,5.59h13.109l-7.517,12.356,3.4,5.591h6.8l7.518-12.357,6.553,10.776h6.8l3.4-5.592-9.956-16.364,11.132-18.3,11.132,18.3-9.953,16.364,3.4,5.592h6.8l6.555-10.775,7.516,12.356h6.8l3.4-5.59-7.518-12.357h13.109l3.4-5.59-3.4-5.59H309.835L298.7,445.59h22.264l9.955,16.364h6.8l3.4-5.59L334.57,445.59H349.6Zm0,0-3.4-5.59H334.57l6.553-10.774-3.4-5.592h-6.8l-9.955,16.366H298.7l11.132-18.3h19.909l3.4-5.591-3.4-5.59H316.635l7.518-12.356-3.4-5.59h-6.8l-7.515,12.356-6.556-10.775h-6.8l-3.4,5.59,9.955,16.365-11.132,18.3-11.132-18.3,9.955-16.365-3.4-5.59h-6.8l-6.553,10.775-7.518-12.356h-6.8l-3.4,5.59,7.517,12.356H247.256l-3.4,5.59,3.4,5.591h19.91l11.132,18.3-22.264,0-9.954-16.364h-6.8l-3.4,5.592,6.554,10.772H227.4L224,440l3.4,5.59h15.033l-6.554,10.774,3.4,5.592,6.8,0,9.954-16.364H278.3l-11.132,18.3h-19.91l-3.4,5.59,3.4,5.59h13.109l-7.517,12.356,3.4,5.591h6.8l7.518-12.357,6.553,10.776h6.8l3.4-5.592-9.956-16.364,11.132-18.3,11.132,18.3-9.953,16.364,3.4,5.592h6.8l6.555-10.775,7.516,12.356h6.8l3.4-5.59-7.518-12.357h13.109l3.4-5.59-3.4-5.59H309.835L298.7,445.59h22.264l9.955,16.364h6.8l3.4-5.59L334.57,445.59H349.6Zm0,0-3.4-5.59H334.57l6.553-10.774-3.4-5.592h-6.8l-9.955,16.366H298.7l11.132-18.3h19.909l3.4-5.591-3.4-5.59H316.635l7.518-12.356-3.4-5.59h-6.8l-7.515,12.356-6.556-10.775h-6.8l-3.4,5.59,9.955,16.365-11.132,18.3-11.132-18.3,9.955-16.365-3.4-5.59h-6.8l-6.553,10.775-7.518-12.356h-6.8l-3.4,5.59,7.517,12.356H247.256l-3.4,5.59,3.4,5.591h19.91l11.132,18.3-22.264,0-9.954-16.364h-6.8l-3.4,5.592,6.554,10.772H227.4L224,440l3.4,5.59h15.033l-6.554,10.774,3.4,5.592,6.8,0,9.954-16.364H278.3l-11.132,18.3h-19.91l-3.4,5.59,3.4,5.59h13.109l-7.517,12.356,3.4,5.591h6.8l7.518-12.357,6.553,10.776h6.8l3.4-5.592-9.956-16.364,11.132-18.3,11.132,18.3-9.953,16.364,3.4,5.592h6.8l6.555-10.775,7.516,12.356h6.8l3.4-5.59-7.518-12.357h13.109l3.4-5.59-3.4-5.59H309.835L298.7,445.59h22.264l9.955,16.364h6.8l3.4-5.59L334.57,445.59H349.6Z"/>
  <path class="cls-2" d="M451,291l-3.4-5.59H432.57l6.553-10.774-3.4-5.592h-6.8l-9.955,16.366H396.7l11.132-18.3h19.909l3.4-5.591-3.4-5.59H414.635l7.518-12.356-3.4-5.59h-6.8l-7.515,12.356-6.556-10.775h-6.8l-3.4,5.59,9.955,16.365-11.132,18.3-11.132-18.3,9.955-16.365-3.4-5.59h-6.8l-6.553,10.775-7.518-12.356h-6.8l-3.4,5.59,7.517,12.356H345.256l-3.4,5.59,3.4,5.591h19.91l11.132,18.3-22.264,0-9.954-16.364h-6.8l-3.4,5.592,6.554,10.772H325.4L322,291l3.4,5.59h15.033l-6.554,10.774,3.4,5.592,6.8,0,9.954-16.364H376.3l-11.132,18.3h-19.91l-3.4,5.59,3.4,5.59h13.109l-7.517,12.356,3.4,5.591h6.8l7.518-12.357,6.553,10.776h6.8l3.4-5.592-9.956-16.364,11.132-18.3,11.132,18.3-9.953,16.364,3.4,5.592h6.8l6.555-10.775,7.516,12.356h6.8l3.4-5.59-7.518-12.357h13.109l3.4-5.59-3.4-5.59H407.835L396.7,296.59h22.264l9.955,16.364h6.8l3.4-5.59L432.57,296.59H447.6Zm0,0-3.4-5.59H432.57l6.553-10.774-3.4-5.592h-6.8l-9.955,16.366H396.7l11.132-18.3h19.909l3.4-5.591-3.4-5.59H414.635l7.518-12.356-3.4-5.59h-6.8l-7.515,12.356-6.556-10.775h-6.8l-3.4,5.59,9.955,16.365-11.132,18.3-11.132-18.3,9.955-16.365-3.4-5.59h-6.8l-6.553,10.775-7.518-12.356h-6.8l-3.4,5.59,7.517,12.356H345.256l-3.4,5.59,3.4,5.591h19.91l11.132,18.3-22.264,0-9.954-16.364h-6.8l-3.4,5.592,6.554,10.772H325.4L322,291l3.4,5.59h15.033l-6.554,10.774,3.4,5.592,6.8,0,9.954-16.364H376.3l-11.132,18.3h-19.91l-3.4,5.59,3.4,5.59h13.109l-7.517,12.356,3.4,5.591h6.8l7.518-12.357,6.553,10.776h6.8l3.4-5.592-9.956-16.364,11.132-18.3,11.132,18.3-9.953,16.364,3.4,5.592h6.8l6.555-10.775,7.516,12.356h6.8l3.4-5.59-7.518-12.357h13.109l3.4-5.59-3.4-5.59H407.835L396.7,296.59h22.264l9.955,16.364h6.8l3.4-5.59L432.57,296.59H447.6Zm0,0-3.4-5.59H432.57l6.553-10.774-3.4-5.592h-6.8l-9.955,16.366H396.7l11.132-18.3h19.909l3.4-5.591-3.4-5.59H414.635l7.518-12.356-3.4-5.59h-6.8l-7.515,12.356-6.556-10.775h-6.8l-3.4,5.59,9.955,16.365-11.132,18.3-11.132-18.3,9.955-16.365-3.4-5.59h-6.8l-6.553,10.775-7.518-12.356h-6.8l-3.4,5.59,7.517,12.356H345.256l-3.4,5.59,3.4,5.591h19.91l11.132,18.3-22.264,0-9.954-16.364h-6.8l-3.4,5.592,6.554,10.772H325.4L322,291l3.4,5.59h15.033l-6.554,10.774,3.4,5.592,6.8,0,9.954-16.364H376.3l-11.132,18.3h-19.91l-3.4,5.59,3.4,5.59h13.109l-7.517,12.356,3.4,5.591h6.8l7.518-12.357,6.553,10.776h6.8l3.4-5.592-9.956-16.364,11.132-18.3,11.132,18.3-9.953,16.364,3.4,5.592h6.8l6.555-10.775,7.516,12.356h6.8l3.4-5.59-7.518-12.357h13.109l3.4-5.59-3.4-5.59H407.835L396.7,296.59h22.264l9.955,16.364h6.8l3.4-5.59L432.57,296.59H447.6Z"/>
</svg>
