<?xml version="1.0" standalone="no"?>
<!DOCTYPE svg PUBLIC "-//W3C//DTD SVG 20010904//EN"
 "http://www.w3.org/TR/2001/REC-SVG-20010904/DTD/svg10.dtd">
<svg version="1.0" xmlns="http://www.w3.org/2000/svg"
 width="700.000000pt" height="700.000000pt" viewBox="0 0 700.000000 700.000000"
 preserveAspectRatio="xMidYMid meet">
<metadata>
Created by potrace 1.11, written by Peter Selinger 2001-2013
</metadata>
<g transform="translate(0.000000,700.000000) scale(0.100000,-0.100000)"
fill="#000000" stroke="none">
<path d="M3713 6280 c-129 -27 -249 -96 -327 -190 -38 -45 -40 -46 -57 -29
-62 62 -232 108 -385 104 -255 -7 -448 -100 -523 -250 -11 -23 -21 -50 -21
-59 0 -13 -5 -16 -22 -10 -47 15 -191 7 -252 -15 -292 -102 -425 -378 -309
-640 l24 -55 -24 -20 c-38 -35 -93 -109 -114 -156 -77 -170 -17 -409 130 -515
49 -35 133 -74 163 -75 19 0 22 -8 28 -58 19 -164 146 -300 326 -346 68 -18
225 -18 305 0 129 28 118 29 139 -18 29 -64 149 -177 226 -215 175 -85 356
-47 509 107 l72 73 40 -41 c54 -57 141 -114 223 -146 84 -34 92 -36 188 -43
196 -15 351 71 429 237 l32 67 36 -8 c59 -14 190 -10 260 7 130 32 249 117
300 214 44 85 60 246 33 344 -7 26 -3 35 35 73 120 122 191 335 162 488 -24
128 -127 238 -263 281 l-53 17 13 43 c8 26 12 81 11 132 -2 76 -6 95 -36 155
-96 191 -332 272 -603 205 -54 -13 -55 -13 -62 25 -15 84 -108 192 -217 251
-116 63 -292 91 -416 66z"/>
<path d="M4824 3773 c-19 -15 -54 -80 -54 -103 0 -24 45 -109 64 -122 12 -8 9
-9 -59 -13 -22 -1 -48 -3 -58 -4 -20 -1 -78 -87 -74 -110 2 -9 9 -26 15 -38 7
-13 11 -23 10 -24 -2 0 -17 -2 -35 -3 -40 -3 -59 -19 -82 -70 -21 -44 -17 -66
19 -116 11 -16 20 -30 20 -32 0 -3 -32 -5 -70 -6 -86 -2 -100 -9 -129 -66 -26
-50 -22 -74 21 -126 18 -22 30 -26 99 -30 l80 -5 -28 -45 c-34 -54 -34 -73 1
-128 25 -41 44 -49 94 -43 10 2 10 -5 -1 -31 -18 -42 -15 -55 17 -106 27 -44
41 -48 129 -42 34 2 34 -3 -3 -65 -35 -60 -37 -82 -9 -130 25 -43 46 -55 93
-55 58 0 82 15 116 74 17 31 35 56 39 56 3 0 15 -15 25 -32 38 -67 52 -76 113
-73 49 2 60 6 85 33 l27 32 12 -23 c17 -32 38 -42 89 -43 61 -1 81 10 106 59
12 22 25 42 30 44 5 2 24 -22 42 -52 38 -63 57 -76 109 -74 61 2 70 8 102 58
l29 49 -22 43 c-12 24 -30 57 -40 72 l-19 28 54 -2 c78 -3 94 5 123 63 23 46
24 53 11 79 -10 19 -12 30 -4 34 6 4 13 5 16 2 14 -14 62 18 84 56 27 49 26
68 -7 119 -13 21 -24 40 -24 43 0 3 33 5 74 5 82 0 94 6 125 69 22 44 21 56
-13 109 -28 45 -31 46 -138 42 -27 -1 -48 1 -48 5 0 3 11 23 25 43 30 45 32
80 5 126 -22 37 -40 48 -80 52 -14 1 -26 2 -28 3 -1 1 4 13 11 29 8 15 13 34
12 43 -3 20 -53 99 -63 100 -4 1 -34 3 -67 4 -33 2 -61 3 -63 4 -1 1 13 25 33
53 42 63 43 90 7 143 -26 38 -31 40 -86 43 -67 4 -75 -1 -122 -75 -19 -29 -36
-53 -38 -53 -3 0 -12 15 -21 34 -29 61 -50 76 -108 76 -55 0 -73 -9 -100 -48
-15 -24 -15 -24 -26 -4 -22 42 -41 52 -96 52 -59 0 -77 -12 -111 -75 -10 -19
-21 -35 -24 -35 -3 0 -23 29 -45 63 l-40 62 -60 3 c-33 1 -65 -1 -71 -5z m510
-248 c20 -35 41 -67 46 -70 19 -12 9 -42 -43 -127 l-53 -86 -52 84 c-29 46
-52 91 -52 99 0 8 16 41 36 72 20 32 43 68 51 81 7 12 18 20 23 17 4 -3 25
-34 44 -70z m-379 -214 c14 -1 35 -26 69 -83 28 -46 51 -86 53 -89 1 -3 -47
-7 -107 -7 l-109 -1 -54 89 c-31 49 -51 90 -46 92 7 2 118 2 194 -1z m855 -5
c0 -5 -23 -46 -52 -91 l-52 -83 -108 -1 c-59 0 -108 2 -108 4 0 9 94 160 105
170 15 12 215 13 215 1z m-754 -438 c-14 -24 -38 -64 -53 -90 l-28 -48 -113 0
c-88 0 -111 3 -106 13 7 10 29 46 90 145 14 21 21 22 125 22 l111 0 -26 -42z
m695 -28 c23 -39 45 -73 50 -76 5 -3 9 -12 9 -20 0 -11 -21 -14 -108 -14
l-107 0 -50 82 c-28 46 -51 86 -53 90 -2 5 46 8 107 8 l110 0 42 -70z m-412
-128 c28 -46 51 -88 51 -93 0 -6 -23 -49 -52 -95 l-52 -85 -18 23 c-9 13 -23
35 -29 51 -6 15 -15 27 -20 27 -5 0 -9 5 -9 11 0 6 -9 23 -20 39 l-20 28 25
36 c14 20 25 39 25 41 0 7 63 105 66 103 1 -2 25 -40 53 -86z"/>
<path d="M1726 3528 c-21 -12 -67 -92 -64 -109 2 -8 18 -38 36 -67 17 -29 32
-55 32 -57 0 -3 -26 -5 -58 -5 -64 0 -81 -9 -111 -60 -25 -42 -26 -63 -5 -95
16 -25 16 -25 -18 -25 -40 0 -59 -13 -87 -60 -27 -45 -26 -63 4 -108 14 -20
25 -41 25 -47 0 -6 -28 -10 -69 -9 -38 0 -76 -5 -84 -11 -21 -15 -57 -77 -57
-99 0 -25 47 -106 63 -107 7 -1 41 -3 77 -4 36 -2 68 -3 72 -4 4 -1 -6 -22
-22 -48 -36 -56 -36 -65 -8 -112 29 -49 46 -61 86 -61 34 0 34 0 18 -25 -22
-33 -20 -51 9 -101 28 -48 45 -56 109 -53 25 2 48 1 50 -2 3 -3 -10 -30 -29
-62 -38 -63 -38 -81 0 -139 26 -39 36 -42 113 -40 42 1 55 12 93 78 17 30 32
54 34 54 2 0 16 -23 32 -50 29 -52 46 -62 106 -63 47 -1 72 10 87 38 17 31 23
31 40 -1 9 -15 26 -28 45 -32 79 -16 113 -3 150 58 l31 51 42 -66 c43 -68 44
-69 127 -68 42 1 72 27 96 86 13 31 10 40 -36 115 l-26 42 59 0 c62 0 77 7
110 57 26 37 28 70 6 101 -15 21 -14 22 19 22 39 0 56 12 85 61 28 47 28 61
-4 110 -14 23 -23 44 -19 47 3 3 36 7 73 8 37 1 70 2 74 3 13 2 58 87 58 110
0 24 -33 77 -60 98 -8 6 -37 11 -65 11 -104 -1 -100 -4 -65 46 36 53 37 77 8
119 -31 46 -48 57 -85 57 -33 0 -34 1 -19 22 22 32 20 62 -9 108 -26 42 -41
48 -118 52 l-47 3 35 58 c19 32 35 65 35 73 0 17 -44 89 -61 100 -21 13 -104
12 -126 -2 -11 -7 -36 -39 -54 -70 l-32 -57 -31 52 c-33 55 -51 65 -105 64
-55 -2 -77 -11 -91 -38 -16 -30 -27 -32 -35 -5 -8 26 -39 42 -84 43 -65 1 -84
-9 -115 -64 l-29 -52 -38 61 c-21 33 -44 64 -51 68 -17 11 -104 12 -122 2z
m514 -263 l52 -86 -53 -89 c-50 -84 -54 -89 -71 -73 -10 9 -18 20 -18 24 0 4
-18 37 -41 73 l-41 65 53 85 c29 47 56 86 60 86 4 0 31 -38 59 -85z m-316
-286 c30 -49 52 -89 48 -90 -11 -1 -185 -1 -204 0 -9 1 -31 26 -49 59 -18 31
-41 68 -51 81 -10 13 -18 27 -18 32 0 4 49 7 110 7 l110 -1 54 -88z m778 72
c-9 -25 -94 -161 -101 -162 -8 -1 -181 -1 -205 0 -17 1 -18 3 -4 19 8 9 34 49
58 89 l44 72 107 0 c95 -1 107 -3 101 -18z m-749 -431 c-15 -25 -39 -65 -54
-90 l-28 -45 -111 -1 c-60 0 -110 1 -110 3 0 2 64 110 95 158 11 18 23 20 123
20 l111 0 -26 -45z m649 41 c6 -1 108 -164 108 -173 0 -2 -49 -4 -109 -4
l-108 -1 -52 85 c-33 53 -49 87 -42 91 9 6 174 7 203 2z m-364 -200 l52 -88
-54 -92 -54 -91 -39 62 c-80 127 -79 112 -20 211 29 47 54 87 57 87 3 0 29
-40 58 -89z"/>
<path d="M3487 1735 c-23 -16 -57 -78 -57 -102 0 -13 14 -45 30 -71 17 -27 30
-52 30 -56 0 -3 -22 -6 -50 -6 -56 0 -95 -15 -104 -39 -4 -9 -13 -28 -22 -44
-14 -25 -14 -30 0 -59 9 -17 16 -32 16 -34 0 -2 -17 -4 -37 -6 -33 -3 -42 -10
-70 -50 -17 -26 -30 -53 -29 -60 5 -23 19 -53 38 -80 10 -14 18 -28 18 -31 0
-2 -32 -3 -71 -2 -82 2 -105 -10 -134 -74 -18 -40 -18 -42 1 -77 32 -59 48
-68 126 -70 38 -1 71 -4 73 -6 2 -2 -9 -24 -24 -48 -34 -54 -34 -55 -10 -101
27 -53 46 -69 85 -69 35 0 42 -8 23 -27 -18 -18 -17 -46 2 -84 30 -60 44 -69
110 -69 32 0 59 -3 59 -6 0 -4 -13 -29 -30 -56 -36 -58 -37 -87 -7 -133 24
-38 43 -48 97 -50 53 -3 73 11 112 76 l35 60 36 -56 c39 -57 41 -58 122 -57
32 1 45 7 64 32 l24 31 26 -32 c22 -26 33 -31 78 -33 61 -2 77 8 114 71 l27
47 29 -48 c45 -78 54 -86 102 -90 63 -6 96 9 120 55 28 53 27 64 -14 132 l-34
57 62 0 c34 0 67 4 73 8 6 4 23 28 38 54 26 45 26 48 12 77 -21 40 -21 41 17
41 37 0 63 23 91 78 17 32 16 34 -14 87 -17 30 -27 55 -21 56 6 1 38 2 71 4
33 1 65 3 70 4 18 2 69 91 65 112 -6 32 -46 90 -67 98 -11 4 -49 7 -84 6 -35
0 -64 2 -64 5 0 3 11 21 24 41 33 48 35 78 7 122 -26 42 -48 57 -85 57 -25 0
-35 13 -17 24 20 13 18 49 -7 96 -26 50 -53 66 -108 60 -11 -1 -29 -2 -41 -1
-22 1 -22 2 12 56 41 63 43 85 13 134 -28 45 -43 55 -93 56 -59 1 -77 -10
-119 -77 l-38 -61 -30 51 c-32 56 -52 66 -123 65 -32 -1 -45 -7 -68 -34 -21
-24 -31 -30 -34 -20 -9 23 -42 51 -63 52 -11 1 -26 2 -32 2 -46 4 -77 -14
-102 -57 -14 -25 -30 -47 -35 -50 -4 -3 -18 14 -31 39 -23 44 -54 84 -68 86
-45 6 -104 3 -115 -6z m512 -253 c28 -46 51 -88 51 -94 0 -21 -103 -179 -111
-171 -4 4 -30 44 -57 89 l-49 81 55 92 c30 50 56 90 57 89 1 -2 25 -40 54 -86z
m-313 -292 c29 -46 51 -87 49 -90 -4 -7 -212 -6 -218 0 -4 5 -90 149 -100 166
-4 7 30 10 105 10 l111 -1 53 -85z m784 78 c0 -4 -23 -45 -51 -91 l-52 -83
-108 1 c-60 0 -109 1 -109 4 0 5 68 119 91 152 17 25 21 26 123 25 59 0 106
-4 106 -8z m-736 -399 c3 -2 -19 -43 -47 -89 l-53 -85 -111 -2 -111 -2 51 89
c41 70 57 90 77 92 38 4 189 2 194 -3z m637 -6 c15 -15 99 -154 99 -164 0 -4
-48 -8 -108 -7 l-107 1 -53 87 c-28 47 -52 88 -52 91 0 8 212 1 221 -8z m-372
-188 c28 -47 51 -90 51 -95 0 -14 -103 -180 -108 -175 -3 2 -28 43 -57 91
l-52 87 55 88 c29 49 55 89 57 89 2 0 26 -38 54 -85z"/>
</g>
</svg>
